<mxfile host="drawio-plugin" modified="2023-11-29T08:48:06.568Z" agent="5.0 (Windows NT 6.2; Win64; x64) AppleWebKit/537.36 (KHTML, like Gecko) Chrome/104.0.5112.102 Safari/537.36" etag="xkL-4Hj9iubdz1734QqG" version="20.5.3" type="embed"><diagram name="Seite-1" id="iJVKhavlK1vaid3QxY5I"><mxGraphModel dx="1341" dy="1110" grid="0" gridSize="10" guides="1" tooltips="1" connect="1" arrows="1" fold="1" page="0" pageScale="1" pageWidth="827" pageHeight="1169" math="0" shadow="0"><root><mxCell id="0"/><mxCell id="1" parent="0"/><mxCell id="p3xyBr4VwalqVMglpD4N-1" value="Product" style="swimlane;fontStyle=0;childLayout=stackLayout;horizontal=1;startSize=26;fillColor=none;horizontalStack=0;resizeParent=1;resizeParentMax=0;resizeLast=0;collapsible=1;marginBottom=0;whiteSpace=wrap;html=1;fontSize=16;" parent="1" vertex="1"><mxGeometry x="380" y="73" width="144" height="104" as="geometry"/></mxCell><mxCell id="p3xyBr4VwalqVMglpD4N-2" value="+ field: type" style="text;strokeColor=none;fillColor=none;align=left;verticalAlign=top;spacingLeft=4;spacingRight=4;overflow=hidden;rotatable=0;points=[[0,0.5],[1,0.5]];portConstraint=eastwest;whiteSpace=wrap;html=1;fontSize=16;" parent="p3xyBr4VwalqVMglpD4N-1" vertex="1"><mxGeometry y="26" width="144" height="26" as="geometry"/></mxCell><mxCell id="p3xyBr4VwalqVMglpD4N-3" value="+ field: type" style="text;strokeColor=none;fillColor=none;align=left;verticalAlign=top;spacingLeft=4;spacingRight=4;overflow=hidden;rotatable=0;points=[[0,0.5],[1,0.5]];portConstraint=eastwest;whiteSpace=wrap;html=1;fontSize=16;" parent="p3xyBr4VwalqVMglpD4N-1" vertex="1"><mxGeometry y="52" width="144" height="26" as="geometry"/></mxCell><mxCell id="p3xyBr4VwalqVMglpD4N-4" value="+ field: type" style="text;strokeColor=none;fillColor=none;align=left;verticalAlign=top;spacingLeft=4;spacingRight=4;overflow=hidden;rotatable=0;points=[[0,0.5],[1,0.5]];portConstraint=eastwest;whiteSpace=wrap;html=1;fontSize=16;" parent="p3xyBr4VwalqVMglpD4N-1" vertex="1"><mxGeometry y="78" width="144" height="26" as="geometry"/></mxCell><mxCell id="p3xyBr4VwalqVMglpD4N-17" value="PageData" style="swimlane;fontStyle=0;childLayout=stackLayout;horizontal=1;startSize=26;fillColor=none;horizontalStack=0;resizeParent=1;resizeParentMax=0;resizeLast=0;collapsible=1;marginBottom=0;whiteSpace=wrap;html=1;fontSize=16;" parent="1" vertex="1"><mxGeometry x="163" y="73" width="140" height="104" as="geometry"/></mxCell><mxCell id="p3xyBr4VwalqVMglpD4N-18" value="+ field: type" style="text;strokeColor=none;fillColor=none;align=left;verticalAlign=top;spacingLeft=4;spacingRight=4;overflow=hidden;rotatable=0;points=[[0,0.5],[1,0.5]];portConstraint=eastwest;whiteSpace=wrap;html=1;fontSize=16;" parent="p3xyBr4VwalqVMglpD4N-17" vertex="1"><mxGeometry y="26" width="140" height="26" as="geometry"/></mxCell><mxCell id="p3xyBr4VwalqVMglpD4N-19" value="+ field: type" style="text;strokeColor=none;fillColor=none;align=left;verticalAlign=top;spacingLeft=4;spacingRight=4;overflow=hidden;rotatable=0;points=[[0,0.5],[1,0.5]];portConstraint=eastwest;whiteSpace=wrap;html=1;fontSize=16;" parent="p3xyBr4VwalqVMglpD4N-17" vertex="1"><mxGeometry y="52" width="140" height="26" as="geometry"/></mxCell><mxCell id="p3xyBr4VwalqVMglpD4N-20" value="+ field: type" style="text;strokeColor=none;fillColor=none;align=left;verticalAlign=top;spacingLeft=4;spacingRight=4;overflow=hidden;rotatable=0;points=[[0,0.5],[1,0.5]];portConstraint=eastwest;whiteSpace=wrap;html=1;fontSize=16;" parent="p3xyBr4VwalqVMglpD4N-17" vertex="1"><mxGeometry y="78" width="140" height="26" as="geometry"/></mxCell><mxCell id="p3xyBr4VwalqVMglpD4N-9" value="Page" style="swimlane;fontStyle=0;childLayout=stackLayout;horizontal=1;startSize=26;fillColor=none;horizontalStack=0;resizeParent=1;resizeParentMax=0;resizeLast=0;collapsible=1;marginBottom=0;whiteSpace=wrap;html=1;fontSize=16;" parent="1" vertex="1"><mxGeometry x="163" y="-80" width="140" height="104" as="geometry"/></mxCell><mxCell id="p3xyBr4VwalqVMglpD4N-10" value="+ field: type" style="text;strokeColor=none;fillColor=none;align=left;verticalAlign=top;spacingLeft=4;spacingRight=4;overflow=hidden;rotatable=0;points=[[0,0.5],[1,0.5]];portConstraint=eastwest;whiteSpace=wrap;html=1;fontSize=16;" parent="p3xyBr4VwalqVMglpD4N-9" vertex="1"><mxGeometry y="26" width="140" height="26" as="geometry"/></mxCell><mxCell id="p3xyBr4VwalqVMglpD4N-11" value="+ field: type" style="text;strokeColor=none;fillColor=none;align=left;verticalAlign=top;spacingLeft=4;spacingRight=4;overflow=hidden;rotatable=0;points=[[0,0.5],[1,0.5]];portConstraint=eastwest;whiteSpace=wrap;html=1;fontSize=16;" parent="p3xyBr4VwalqVMglpD4N-9" vertex="1"><mxGeometry y="52" width="140" height="26" as="geometry"/></mxCell><mxCell id="p3xyBr4VwalqVMglpD4N-12" value="+ field: type" style="text;strokeColor=none;fillColor=none;align=left;verticalAlign=top;spacingLeft=4;spacingRight=4;overflow=hidden;rotatable=0;points=[[0,0.5],[1,0.5]];portConstraint=eastwest;whiteSpace=wrap;html=1;fontSize=16;" parent="p3xyBr4VwalqVMglpD4N-9" vertex="1"><mxGeometry y="78" width="140" height="26" as="geometry"/></mxCell><mxCell id="p3xyBr4VwalqVMglpD4N-5" value="Products" style="swimlane;fontStyle=0;childLayout=stackLayout;horizontal=1;startSize=26;fillColor=none;horizontalStack=0;resizeParent=1;resizeParentMax=0;resizeLast=0;collapsible=1;marginBottom=0;whiteSpace=wrap;html=1;fontSize=16;" parent="1" vertex="1"><mxGeometry x="380" y="232" width="140" height="104" as="geometry"/></mxCell><mxCell id="p3xyBr4VwalqVMglpD4N-6" value="+ field: type" style="text;strokeColor=none;fillColor=none;align=left;verticalAlign=top;spacingLeft=4;spacingRight=4;overflow=hidden;rotatable=0;points=[[0,0.5],[1,0.5]];portConstraint=eastwest;whiteSpace=wrap;html=1;fontSize=16;" parent="p3xyBr4VwalqVMglpD4N-5" vertex="1"><mxGeometry y="26" width="140" height="26" as="geometry"/></mxCell><mxCell id="p3xyBr4VwalqVMglpD4N-7" value="+ field: type" style="text;strokeColor=none;fillColor=none;align=left;verticalAlign=top;spacingLeft=4;spacingRight=4;overflow=hidden;rotatable=0;points=[[0,0.5],[1,0.5]];portConstraint=eastwest;whiteSpace=wrap;html=1;fontSize=16;" parent="p3xyBr4VwalqVMglpD4N-5" vertex="1"><mxGeometry y="52" width="140" height="26" as="geometry"/></mxCell><mxCell id="p3xyBr4VwalqVMglpD4N-8" value="+ field: type" style="text;strokeColor=none;fillColor=none;align=left;verticalAlign=top;spacingLeft=4;spacingRight=4;overflow=hidden;rotatable=0;points=[[0,0.5],[1,0.5]];portConstraint=eastwest;whiteSpace=wrap;html=1;fontSize=16;" parent="p3xyBr4VwalqVMglpD4N-5" vertex="1"><mxGeometry y="78" width="140" height="26" as="geometry"/></mxCell><mxCell id="p3xyBr4VwalqVMglpD4N-30" value="" style="endArrow=diamondThin;endFill=0;endSize=24;html=1;rounded=0;fontSize=12;curved=1;exitX=0;exitY=0.5;exitDx=0;exitDy=0;" parent="1" source="p3xyBr4VwalqVMglpD4N-7" edge="1" target="4"><mxGeometry width="160" relative="1" as="geometry"><mxPoint x="419" y="238" as="sourcePoint"/><mxPoint x="304" y="130" as="targetPoint"/></mxGeometry></mxCell><mxCell id="2" value="Invoice" style="swimlane;fontStyle=0;childLayout=stackLayout;horizontal=1;startSize=26;fillColor=none;horizontalStack=0;resizeParent=1;resizeParentMax=0;resizeLast=0;collapsible=1;marginBottom=0;" vertex="1" parent="1"><mxGeometry x="163" y="232" width="140" height="104" as="geometry"/></mxCell><mxCell id="3" value="+ field: type" style="text;strokeColor=none;fillColor=none;align=left;verticalAlign=top;spacingLeft=4;spacingRight=4;overflow=hidden;rotatable=0;points=[[0,0.5],[1,0.5]];portConstraint=eastwest;" vertex="1" parent="2"><mxGeometry y="26" width="140" height="26" as="geometry"/></mxCell><mxCell id="4" value="+ field: type" style="text;strokeColor=none;fillColor=none;align=left;verticalAlign=top;spacingLeft=4;spacingRight=4;overflow=hidden;rotatable=0;points=[[0,0.5],[1,0.5]];portConstraint=eastwest;" vertex="1" parent="2"><mxGeometry y="52" width="140" height="26" as="geometry"/></mxCell><mxCell id="5" value="+ field: type" style="text;strokeColor=none;fillColor=none;align=left;verticalAlign=top;spacingLeft=4;spacingRight=4;overflow=hidden;rotatable=0;points=[[0,0.5],[1,0.5]];portConstraint=eastwest;" vertex="1" parent="2"><mxGeometry y="78" width="140" height="26" as="geometry"/></mxCell><mxCell id="6" value="" style="endArrow=block;endSize=16;endFill=0;html=1;rounded=0;" edge="1" parent="1" source="2" target="p3xyBr4VwalqVMglpD4N-17"><mxGeometry width="160" relative="1" as="geometry"><mxPoint x="421" y="369" as="sourcePoint"/><mxPoint x="366" y="178" as="targetPoint"/></mxGeometry></mxCell><mxCell id="7" value="" style="endArrow=block;endSize=16;endFill=0;html=1;rounded=0;exitX=0.5;exitY=0;exitDx=0;exitDy=0;" edge="1" parent="1" source="p3xyBr4VwalqVMglpD4N-17" target="p3xyBr4VwalqVMglpD4N-9"><mxGeometry width="160" relative="1" as="geometry"><mxPoint x="-35" y="192" as="sourcePoint"/><mxPoint x="125" y="192" as="targetPoint"/></mxGeometry></mxCell><mxCell id="9" value="" style="endArrow=block;endSize=16;endFill=0;html=1;rounded=0;exitX=0.5;exitY=0;exitDx=0;exitDy=0;" edge="1" parent="1" source="p3xyBr4VwalqVMglpD4N-5" target="p3xyBr4VwalqVMglpD4N-1"><mxGeometry width="160" relative="1" as="geometry"><mxPoint x="486" y="390" as="sourcePoint"/><mxPoint x="646" y="390" as="targetPoint"/></mxGeometry></mxCell></root></mxGraphModel></diagram></mxfile>